#!OML:ASF E:\emotionWalksFemale\Project 1\Capture day 1\Session 1\Female1.ASF
:FULLY-SPECIFIED
:DEGREES
1734
root 10.3715 15.2944 -29.0289 -0.749799 4.55366 3.11615
lowerback 8.62696 -0.258261 -3.03509
upperback -2.69475 -0.691828 0.100208
thorax -7.65758 -0.190259 1.91836
lowerneck 0.0837959 -11.6718 -11.2375
upperneck 4.58646 -15.7338 6.01154
head 2.70548 -7.92142 2.99893
rclavicle -5.39203e-015 3.97569e-015
rhumerus -63.6249 44.3327 -120.282
rradius 111.129
rwrist -37.9019
rhand 23.8547 -75.8214
rfingers 7.12502
rthumb -131.892 -1162.02
lclavicle -5.39203e-015 3.97569e-015
lhumerus -72.622 -51.0288 118.798
lradius 114.245
lwrist 10.3286
lhand 8.80691 -40.8908
lfingers 7.12502
lthumb 33.9939 -14.1056
rfemur -29.7793 3.95221 21.934
rtibia 37.6201
rfoot -12.9775 -20.6491
rtoes -16.9981
lfemur 5.52902 -11.3177 -33.4832
ltibia 18.0727
lfoot -22.1361 13.5765
ltoes -24.3381
1735
root 10.3711 15.2886 -28.9262 -0.716961 4.64153 3.2148
lowerback 8.5033 -0.282401 -3.25106
upperback -2.65555 -0.749438 0.022564
thorax -7.54006 -0.212798 1.9647
lowerneck -0.204744 -11.7104 -11.0631
upperneck 4.76556 -15.7548 5.86584
head 2.78201 -7.92834 2.90764
rclavicle 7.04443e-015 3.97569e-015
rhumerus -63.5347 44.3091 -120.285
rradius 111.149
rwrist -37.6519
rhand 24.0277 -75.8317
rfingers 7.12502
rthumb -131.733 -1162.08
lclavicle 7.04443e-015 3.97569e-015
lhumerus -72.6969 -51.1025 118.962
lradius 114.064
lwrist 9.32189
lhand 6.59918 -40.5813
lfingers 7.12502
lthumb 31.8941 -13.3541
rfemur -29.7068 4.49874 21.7543
rtibia 35.6301
rfoot -13.437 -21.3576
rtoes -13.6371
lfemur 6.20496 -11.3756 -33.6526
ltibia 17.5396
lfoot -22.3239 13.4588
ltoes -22.9722
1736
root 10.3716 15.2818 -28.8237 -0.652239 4.8372 3.22541
lowerback 8.26369 -0.351252 -3.3747
upperback -2.52499 -0.844064 0.0138315
thorax -7.25533 -0.260569 2.03455
lowerneck -0.176114 -11.8036 -11.0856
upperneck 4.60158 -15.8794 5.91615
head 2.74403 -7.98824 2.92398
rclavicle 1.6524e-015 2.98177e-015
rhumerus -63.3609 44.6026 -120.2
rradius 111.156
rwrist -37.7891
rhand 24.0366 -75.8002
rfingers 7.12502
rthumb -131.725 -1162.12
lclavicle 1.6524e-015 2.98177e-015
lhumerus -72.1384 -51.0744 118.603
lradius 114.003
lwrist 9.48716
lhand 6.7357 -41.084
lfingers 7.12502
lthumb 32.0241 -13.8828
rfemur -29.67 5.11192 21.604
rtibia 33.7381
rfoot -13.4197 -22.5781
rtoes -13.3461
lfemur 6.84912 -11.6226 -33.7501
ltibia 17.0277
lfoot -22.4105 13.5449
ltoes -22.4392
1737
root 10.3718 15.273 -28.7212 -0.55596 5.00902 3.15978
lowerback 8.38253 -0.458208 -3.28395
upperback -2.61822 -0.987533 -0.0429077
thorax -7.41709 -0.332166 1.94686
lowerneck -0.29848 -11.8355 -11.1659
upperneck 4.7323 -15.9153 5.96797
head 2.81652 -8.00535 2.93452
rclavicle -5.11871e-015 -5.1684e-015
rhumerus -63.384 44.8008 -120.419
rradius 111.042
rwrist -37.7685
rhand 24.2435 -75.8484
rfingers 7.12502
rthumb -131.534 -1162.16
lclavicle -5.11871e-015 -5.1684e-015
lhumerus -72.2889 -50.8693 118.673
lradius 114.094
lwrist 9.45037
lhand 9.03779 -42.302
lfingers 7.12502
lthumb 34.2132 -15.5658
rfemur -29.6345 5.81403 21.5051
rtibia 31.9334
rfoot -13.8052 -23.9865
rtoes -13.1534
lfemur 7.45909 -11.7076 -33.7295
ltibia 16.5468
lfoot -22.2598 13.7131
ltoes -23.9568
1738
root 10.3713 15.264 -28.6136 -0.449825 5.11536 3.15055
lowerback 8.27632 -0.518301 -3.3213
upperback -2.66413 -1.07297 -0.100222
thorax -7.40053 -0.373525 1.9184
lowerneck -0.265137 -11.8465 -11.1875
upperneck 4.71098 -15.9397 6.07811
head 2.81752 -8.01606 2.97013
rclavicle 1.29334e-014 -2.78299e-015
rhumerus -63.1595 44.8768 -120.371
rradius 110.891
rwrist -37.4354
rhand 24.5451 -75.7705
rfingers 7.12502
rthumb -131.257 -1162.37
lclavicle 1.29334e-014 -2.78299e-015
lhumerus -72.4838 -50.7768 118.823
lradius 114.161
lwrist 9.2918
lhand 7.56614 -41.9275
lfingers 7.12502
lthumb 32.8144 -14.8884
rfemur -29.5198 6.68343 21.295
rtibia 30.2019
rfoot -14.7833 -25.2945
rtoes -10.9197
lfemur 8.01124 -11.6046 -33.7301
ltibia 16.1607
lfoot -22.1088 13.7804
ltoes -25.6875
1739
root 10.3683 15.2556 -28.5061 -0.442023 5.23 3.13499
lowerback 8.16943 -0.590733 -3.48035
upperback -2.63393 -1.18074 -0.075043
thorax -7.29736 -0.420727 2.04746
lowerneck -0.0100781 -11.8132 -11.3628
upperneck 4.45519 -15.9271 6.35189
head 2.73471 -8.00969 3.09827
rclavicle 2.85753e-016 3.77691e-015
rhumerus -63.1331 45.2325 -120.453
rradius 110.805
rwrist -37.6929
rhand 24.6004 -75.5851
rfingers 7.12502
rthumb -131.206 -1162.58
lclavicle 2.85753e-016 3.77691e-015
lhumerus -72.0985 -50.587 118.551
lradius 114.093
lwrist 9.45421
lhand 7.57165 -42.596
lfingers 7.12502
lthumb 32.8197 -15.5579
rfemur -29.3056 7.82139 21.0012
rtibia 28.6288
rfoot -15.4522 -26.9324
rtoes -9.88431
lfemur 8.64444 -11.5397 -33.7321
ltibia 15.7937
lfoot -22.1885 13.5897
ltoes -24.6883
1740
root 10.3633 15.2504 -28.404 -0.400659 5.37936 3.07327
lowerback 8.21566 -0.647855 -3.54345
upperback -2.62915 -1.26665 -0.0852113
thorax -7.3129 -0.45987 2.0852
lowerneck 0.00603642 -11.8364 -11.4803
upperneck 4.4408 -15.9719 6.5854
head 2.76011 -8.02955 3.17927
rclavicle -2.66868e-014 2.78299e-015
rhumerus -63.1598 45.6026 -120.686
rradius 110.669
rwrist -38.2359
rhand 24.2808 -75.1306
rfingers 7.12502
rthumb -131.5 -1162.89
lclavicle -2.66868e-014 2.78299e-015
lhumerus -72.1252 -50.615 118.673
lradius 114.146
lwrist 8.65846
lhand 6.70759 -42.1969
lfingers 7.12502
lthumb 31.9973 -14.9904
rfemur -29.2178 9.34463 20.5881
rtibia 27.2816
rfoot -16.1527 -29.0395
rtoes -8.44234
lfemur 9.24908 -11.5252 -33.6669
ltibia 15.3452
lfoot -22.1902 13.3636
ltoes -23.3707
